<svg width="32" height="36" viewBox="0 0 32 36" fill="none" xmlns="http://www.w3.org/2000/svg">
<path d="M20.9682 17.3753C20.9682 18.438 20.1842 19.3091 19.1912 19.3091C18.2155 19.3091 17.4141 18.438 17.4141 17.3753C17.4141 16.3125 18.1981 15.4414 19.1912 15.4414C20.1842 15.4414 20.9682 16.3125 20.9682 17.3753ZM12.8321 15.4414C11.839 15.4414 11.055 16.3125 11.055 17.3753C11.055 18.438 11.8564 19.3091 12.8321 19.3091C13.8251 19.3091 14.6091 18.438 14.6091 17.3753C14.6266 16.3125 13.8251 15.4414 12.8321 15.4414ZM31.2299 4.41319V35.6686C26.8407 31.7898 28.2444 33.0737 23.146 28.3338L24.0694 31.5569H4.31263C2.34393 31.5569 0.741089 29.9541 0.741089 27.968V4.41319C0.741089 2.42706 2.34393 0.824219 4.31263 0.824219H27.6583C29.627 0.824219 31.2299 2.42706 31.2299 4.41319ZM26.2646 20.9294C26.2646 15.3195 23.7558 10.7723 23.7558 10.7723C21.247 8.89068 18.8601 8.94295 18.8601 8.94295L18.6162 9.2217C21.578 10.1277 22.9544 11.4343 22.9544 11.4343C18.8158 9.1661 13.9544 9.1657 9.93999 10.9291C9.29537 11.2253 8.91209 11.4343 8.91209 11.4343C8.91209 11.4343 10.3581 10.058 13.4941 9.15202L13.3199 8.94295C13.3199 8.94295 10.9331 8.89068 8.42427 10.7723C8.42427 10.7723 5.91547 15.3195 5.91547 20.9294C5.91547 20.9294 7.37894 23.4556 11.2292 23.5776C11.2292 23.5776 11.8739 22.7936 12.3965 22.1315C10.1839 21.4695 9.34764 20.0757 9.34764 20.0757C9.60394 20.2551 10.0266 20.4877 10.062 20.5113C13.0026 22.1581 17.1797 22.6976 20.9334 21.121C21.5432 20.8946 22.2226 20.5635 22.9369 20.0931C22.9369 20.0931 22.0658 21.5218 19.7835 22.1664C20.3062 22.8284 20.9334 23.5776 20.9334 23.5776C24.7837 23.4556 26.2646 20.9294 26.2646 20.9294Z" fill="black"/>
</svg>
