<svg width="32" height="33" viewBox="0 0 32 33" fill="none" xmlns="http://www.w3.org/2000/svg">
<path d="M27.925 0.824219H3.96954C2.16607 0.824219 0.702881 2.34442 0.702881 4.21815V29.107C0.702881 30.9807 2.16607 32.5009 3.96954 32.5009H27.925C29.7285 32.5009 31.1917 30.9807 31.1917 29.107V4.21815C31.1917 2.34442 29.7285 0.824219 27.925 0.824219ZM19.5746 27.9544C19.003 28.0605 18.792 27.6928 18.792 27.3888C18.792 27.007 18.8056 25.0555 18.8056 23.4787C18.8056 22.3757 18.4517 21.6757 18.0366 21.308C20.5546 21.0181 23.2088 20.6575 23.2088 16.1393C23.2088 14.8525 22.7664 14.209 22.045 13.3818C22.1607 13.0777 22.5486 11.8262 21.9293 10.1999C20.9834 9.89591 18.8192 11.4656 18.8192 11.4656C17.9209 11.204 16.9477 11.0696 15.9881 11.0696C15.0285 11.0696 14.0553 11.204 13.157 11.4656C13.157 11.4656 10.9929 9.89591 10.0469 10.1999C9.42758 11.8191 9.80869 13.0706 9.93119 13.3818C9.2098 14.209 8.86952 14.8525 8.86952 16.1393C8.86952 20.6363 11.408 21.0181 13.926 21.308C13.5994 21.612 13.3067 22.1353 13.2046 22.8848C12.5581 23.1888 10.9044 23.712 9.91758 21.9019C9.29827 20.7848 8.18216 20.6928 8.18216 20.6928C7.07967 20.6787 8.1073 21.4141 8.1073 21.4141C8.8423 21.7676 9.35952 23.1252 9.35952 23.1252C10.0197 25.2252 13.1774 24.5181 13.1774 24.5181C13.1774 25.5009 13.191 27.0989 13.191 27.3888C13.191 27.6928 12.9869 28.0605 12.4084 27.9544C7.91675 26.3918 4.77259 21.9514 4.77259 16.7615C4.77259 10.2707 9.55008 5.34239 15.7976 5.34239C22.045 5.34239 27.1084 10.2707 27.1084 16.7615C27.1152 21.9514 24.0663 26.3989 19.5746 27.9544ZM12.8984 23.6343C12.7691 23.6625 12.6466 23.606 12.633 23.514C12.6194 23.408 12.7078 23.3161 12.8372 23.2878C12.9665 23.2736 13.089 23.3302 13.1026 23.4221C13.123 23.514 13.0345 23.606 12.8984 23.6343ZM12.2519 23.5706C12.2519 23.6625 12.1498 23.7403 12.0137 23.7403C11.864 23.7545 11.7619 23.6767 11.7619 23.5706C11.7619 23.4787 11.864 23.4009 12.0001 23.4009C12.1294 23.3868 12.2519 23.4646 12.2519 23.5706ZM11.3195 23.4928C11.2923 23.5848 11.1562 23.6272 11.0405 23.5848C10.9112 23.5565 10.8227 23.4504 10.8499 23.3585C10.8772 23.2666 11.0133 23.2242 11.129 23.2524C11.2651 23.2949 11.3535 23.4009 11.3195 23.4928ZM10.4824 23.111C10.4212 23.1888 10.2919 23.1747 10.1898 23.0686C10.0877 22.9767 10.0605 22.8423 10.1285 22.7787C10.1898 22.7009 10.3191 22.7151 10.4212 22.8211C10.5097 22.913 10.5437 23.0545 10.4824 23.111ZM9.86313 22.4676C9.80188 22.51 9.68619 22.4676 9.61133 22.3615C9.53647 22.2555 9.53647 22.1353 9.61133 22.0858C9.68619 22.0221 9.80188 22.0716 9.86313 22.1777C9.93799 22.2838 9.93799 22.411 9.86313 22.4676ZM9.42077 21.7817C9.35952 21.8454 9.25744 21.81 9.18258 21.7393C9.10772 21.6474 9.09411 21.5413 9.15536 21.4918C9.21661 21.4282 9.31869 21.4636 9.39355 21.5343C9.46841 21.6262 9.48202 21.7322 9.42077 21.7817ZM8.9648 21.2585C8.93758 21.3221 8.84911 21.3363 8.77425 21.2868C8.68577 21.2444 8.64494 21.1666 8.67216 21.1029C8.69938 21.0605 8.77425 21.0393 8.86272 21.0747C8.95119 21.1242 8.99202 21.2019 8.9648 21.2585Z" fill="black"/>
</svg>
