<svg width="32" height="36" viewBox="0 0 32 36" fill="none" xmlns="http://www.w3.org/2000/svg">
<path d="M29.0904 0.428223H2.95029C1.75252 0.428223 0.779327 1.556 0.779327 2.94044V32.7603C0.779327 34.1448 1.75252 35.2726 2.95029 35.2726H29.0904C30.2881 35.2726 31.2681 34.1448 31.2681 32.7603V2.94044C31.2681 1.556 30.2881 0.428223 29.0904 0.428223ZM9.99402 30.2948H5.47515V13.666H10.0008V30.2948H9.99402ZM7.73458 11.3949C6.28501 11.3949 5.11445 10.0493 5.11445 8.40042C5.11445 6.75154 6.28501 5.40599 7.73458 5.40599C9.17736 5.40599 10.3547 6.75154 10.3547 8.40042C10.3547 10.0571 9.18416 11.3949 7.73458 11.3949ZM26.933 30.2948H22.4141V22.2059C22.4141 20.2771 22.3801 17.7959 20.0662 17.7959C17.7115 17.7959 17.3508 19.8959 17.3508 22.0659V30.2948H12.8319V13.666H17.1671V15.9371H17.2283C17.834 14.6304 19.3108 13.2537 21.509 13.2537C26.0823 13.2537 26.933 16.6993 26.933 21.1793V30.2948Z" fill="black"/>
</svg>
