<svg width="182" height="191" viewBox="0 0 182 191" fill="none" xmlns="http://www.w3.org/2000/svg">
<path d="M13.8422 119.05C12.5651 118.484 11.186 118.419 9.79722 118.419H5.2395V134.197H7.90399C7.90399 133.303 7.83972 132.376 8.25609 131.541C8.92815 130.198 10.493 129.553 11.8595 128.944C13.3252 128.292 14.9501 127.656 15.9226 126.393C16.7847 125.273 17.0194 123.79 16.7679 122.452C16.4787 120.923 15.3414 119.714 13.8422 119.05ZM13.7108 125.082C13.0779 125.953 12.0076 126.443 11.0156 126.898C9.93275 127.395 8.81777 127.889 7.90399 128.634V120.7H10.4302C11.8441 120.7 13.402 121.1 13.9609 122.437C14.3018 123.252 14.2432 124.345 13.7108 125.082Z" fill="white" fill-opacity="0.97"/>
<path d="M33.4349 118.856C31.1267 117.656 27.8181 118.01 26.0339 119.86C25.1662 120.758 24.7261 121.915 24.6478 123.104C24.6283 123.404 24.6352 134.197 24.6352 134.197H27.2732V128.97C28.8269 128.788 30.5664 128.927 31.87 129.799C33.0381 130.579 33.5509 131.807 33.5537 133.106C33.5537 133.469 33.5537 134.197 33.5537 134.197H36.193V123.617C36.1902 121.676 35.3253 119.839 33.4349 118.856ZM33.4084 128.274C31.8407 126.812 29.4361 126.3 27.2732 126.618V124.039C27.2732 123.565 27.2606 123.091 27.3933 122.627C27.6462 121.737 28.3812 121.004 29.3313 120.711C30.3219 120.403 31.469 120.542 32.3101 121.119C33.1541 121.699 33.5439 122.59 33.5537 123.541C33.5607 124.281 33.5537 125.023 33.5537 125.763V128.427C33.5048 128.377 33.4601 128.322 33.4084 128.274Z" fill="white" fill-opacity="0.97"/>
<path d="M54.3339 128.335C54.0293 128.186 53.7037 128.062 53.3628 127.963C54.2095 127.535 55.0478 127.007 55.6402 126.294C56.1894 125.632 56.5023 124.868 56.6015 124.043C56.8069 122.313 56.1921 120.664 54.644 119.609C52.5817 118.2 49.9731 118.419 47.5518 118.419H45.0326V134.197H47.6971C47.6971 133.729 47.6789 133.257 47.7027 132.789C47.7558 131.747 48.256 130.741 49.2466 130.183C50.2149 129.639 51.5366 129.575 52.5692 130C53.6101 130.43 54.285 131.35 54.454 132.373C54.5532 132.969 54.5057 133.595 54.5057 134.197H57.1967C57.1967 133.33 57.2484 132.449 57.0403 131.598C56.6951 130.196 55.7115 129.012 54.3339 128.335ZM50.3099 120.7C52.0061 120.7 53.7219 121.462 53.9063 123.169C53.9957 123.991 53.8001 124.804 53.2063 125.435C52.5566 126.124 51.5883 126.54 50.7109 126.929C49.6462 127.4 48.5773 127.891 47.6971 128.628V120.7H50.3099Z" fill="white" fill-opacity="0.97"/>
<path d="M65.4827 120.628C66.3517 120.415 67.2515 120.316 68.1472 120.264V118.419H65.4827V120.628Z" fill="white" fill-opacity="0.97"/>
<path d="M65.4827 122.011V134.197H68.1472V121.648C67.2515 121.682 66.3503 121.803 65.4827 122.011Z" fill="white" fill-opacity="0.97"/>
<path d="M85.9333 126.623C84.9776 125.933 83.8333 125.536 82.7029 125.156C81.655 124.805 80.4367 124.433 79.6794 123.638C78.9794 122.904 79.1358 121.741 79.8568 121.074C80.6029 120.385 81.8003 120.231 82.7826 120.517C83.892 120.84 84.5612 121.759 84.5612 122.813H87.1992C87.1992 121.656 86.7968 120.544 85.9319 119.692C85.0936 118.867 83.9381 118.376 82.7295 118.231C81.4734 118.079 80.1712 118.229 79.0604 118.812C78.0181 119.357 77.1392 120.223 76.7662 121.286C76.4099 122.301 76.4881 123.568 77.0554 124.509C77.6883 125.557 78.8313 126.186 79.9979 126.645C81.2666 127.143 82.7295 127.449 83.864 128.193C84.3209 128.492 84.701 128.877 84.8365 129.389C84.9692 129.891 84.9203 130.456 84.6674 130.919C84.0513 132.046 82.5171 132.39 81.261 132.168C79.8526 131.92 78.8354 130.838 78.8354 129.511H76.2227C76.2227 130.795 76.6768 132.006 77.6758 132.92C78.665 133.827 80.0385 134.317 81.4175 134.419C82.8636 134.525 84.3558 134.255 85.5533 133.476C86.6543 132.758 87.3976 131.645 87.5415 130.405C87.7078 128.958 87.1992 127.539 85.9333 126.623Z" fill="white" fill-opacity="0.97"/>
<path d="M110.764 126.963C111.354 126.29 111.928 125.58 112.318 124.789C112.702 124.007 112.841 123.142 112.737 122.29C112.54 120.668 111.32 119.322 109.73 118.654C108.105 117.972 106.059 118.004 104.469 118.752C102.863 119.506 101.712 120.947 101.615 122.625C101.516 124.341 102.384 125.858 103.851 126.89L105.354 125.119C104.815 124.645 104.387 124.07 104.265 123.381C104.146 122.718 104.269 122.048 104.707 121.502C105.568 120.432 107.296 120.109 108.575 120.7C109.213 120.994 109.75 121.506 109.979 122.135C110.218 122.789 110.105 123.541 109.802 124.16C109.494 124.786 109.005 125.321 108.543 125.853C106.761 127.903 104.98 129.951 103.2 132C102.564 132.733 101.927 133.465 101.291 134.197H113.351V131.94H106.433L110.764 126.963Z" fill="white" fill-opacity="0.97"/>
<path d="M135.833 120.531C133.175 118.141 129.013 117.499 125.64 118.93C122.238 120.375 120.19 123.697 120.543 127.121C120.89 130.478 123.617 133.356 127.162 134.183C130.758 135.021 134.704 133.787 136.857 130.98C139.021 128.157 138.959 124.195 136.699 121.435C136.435 121.114 136.146 120.812 135.833 120.531ZM135.239 128.578C134.198 130.825 131.742 132.27 129.08 132.122C126.501 131.981 124.261 130.281 123.514 128.02C122.747 125.699 123.658 123.106 125.751 121.636C127.853 120.16 130.831 120.108 133.004 121.492C135.432 123.039 136.397 126.071 135.239 128.578Z" fill="white" fill-opacity="0.97"/>
<path d="M155.413 126.963C156.003 126.29 156.577 125.58 156.967 124.789C157.351 124.007 157.489 123.142 157.386 122.29C157.188 120.668 155.969 119.322 154.379 118.654C152.754 117.972 150.707 118.004 149.117 118.752C147.512 119.506 146.361 120.947 146.264 122.625C146.165 124.341 147.031 125.858 148.5 126.89L150.003 125.119C149.464 124.645 149.036 124.07 148.913 123.381C148.795 122.718 148.916 122.048 149.356 121.502C150.217 120.432 151.945 120.109 153.224 120.7C153.862 120.994 154.399 121.506 154.628 122.135C154.867 122.789 154.754 123.541 154.451 124.16C154.143 124.786 153.654 125.321 153.19 125.853C151.41 127.903 149.629 129.951 147.849 132C147.212 132.733 146.576 133.465 145.94 134.197H157.999V131.94H151.082L155.413 126.963Z" fill="white" fill-opacity="0.97"/>
<path d="M174.201 122.642V127.99C172.932 127.159 171.346 126.906 170.019 126.174C168.872 125.543 168.507 124.439 168.501 123.271C168.494 122.127 168.501 118.419 168.501 118.419H165.836C165.836 118.419 165.833 121.703 165.836 123.345C165.838 125.027 166.288 126.67 167.785 127.753C168.707 128.42 169.816 128.831 170.916 129.184C171.897 129.501 172.939 129.896 173.612 130.659C174.142 131.259 174.201 131.977 174.201 132.718V134.197H176.76V122.642H174.201Z" fill="white" fill-opacity="0.97"/>
<path d="M89.8274 173.225C89.8274 180.379 83.5189 186.18 75.742 186.18C67.9637 186.18 61.6609 180.379 61.6609 173.225C61.6609 166.07 67.9637 160.271 75.742 160.271C83.5189 160.271 89.8274 166.07 89.8274 173.225ZM75.742 162.43C69.2617 162.43 64.0082 167.264 64.0082 173.225C64.0082 179.186 69.2617 184.02 75.742 184.02C82.2251 184.02 87.48 179.186 87.48 173.225C87.48 167.264 82.2251 162.43 75.742 162.43Z" fill="#FCB030"/>
<path d="M120.342 173.225C120.342 180.379 114.035 186.18 106.258 186.18C98.4795 186.18 92.1738 180.379 92.1738 173.225C92.1738 166.07 98.4795 160.271 106.258 160.271C114.035 160.271 120.342 166.07 120.342 173.225ZM106.258 162.43C99.7747 162.43 94.5225 167.264 94.5225 173.225C94.5225 179.186 99.7747 184.02 106.258 184.02C112.739 184.02 117.994 179.186 117.994 173.225C117.994 167.264 112.739 162.43 106.258 162.43Z" fill="#00A652"/>
<path d="M60.4891 148.399C52.7094 148.399 46.4052 154.196 46.4052 161.351C46.4052 168.504 52.7094 174.305 60.4891 174.305C60.8999 174.305 61.3037 174.283 61.7075 174.252C61.6795 173.914 61.6599 173.571 61.6599 173.225C61.6599 172.838 61.6837 172.463 61.7172 172.088C61.312 172.124 60.9041 172.143 60.4891 172.143C54.006 172.143 48.7511 167.313 48.7511 161.351C48.7511 155.387 54.006 150.553 60.4891 150.553C66.9694 150.553 72.2243 155.387 72.2243 161.351C72.2243 166.138 68.8346 170.195 64.14 171.608C64.0548 172.137 64.0073 172.678 64.0073 173.225C64.0073 173.45 64.017 173.667 64.031 173.89C70.0935 172.441 74.5688 167.375 74.5688 161.351C74.5688 154.196 68.266 148.399 60.4891 148.399Z" fill="#0082C7"/>
<path d="M121.513 148.397C114.113 148.397 108.051 153.646 107.479 160.319C108.273 160.382 109.05 160.504 109.801 160.686C110.174 155.034 115.276 150.553 121.513 150.553C127.997 150.553 133.251 155.387 133.251 161.348C133.251 167.313 127.997 172.143 121.513 172.143C115.632 172.143 110.756 168.16 109.91 162.966C109.136 162.734 108.323 162.574 107.488 162.492C108.115 169.109 114.155 174.305 121.513 174.305C129.29 174.305 135.595 168.504 135.595 161.348C135.595 154.196 129.29 148.397 121.513 148.397Z" fill="#E8384F"/>
<path d="M91.0011 148.397C83.5987 148.397 77.5348 153.652 76.9647 160.319C77.7611 160.384 78.5352 160.509 79.2897 160.686C79.6627 155.034 84.7612 150.553 91.0011 150.553C97.4828 150.553 102.736 155.387 102.736 161.348C102.736 166.138 99.3467 170.195 94.6549 171.608C94.571 172.139 94.5221 172.678 94.5221 173.225C94.5221 173.449 94.5291 173.667 94.5459 173.89C100.606 172.441 105.084 167.375 105.084 161.348C105.084 154.196 98.7794 148.397 91.0011 148.397Z" fill="black"/>
<path d="M92.1745 173.225C92.1745 172.838 92.1955 172.463 92.2318 172.087C91.8252 172.123 91.4158 172.143 91.0008 172.143C85.1158 172.143 80.2437 168.16 79.3928 162.967C78.6187 162.733 77.8111 162.575 76.9756 162.494C77.6029 169.108 83.6417 174.305 91.0008 174.305C91.4116 174.305 91.8182 174.283 92.2192 174.252C92.1885 173.914 92.1745 173.571 92.1745 173.225Z" fill="black"/>
<path d="M97.044 91.3972C95.5714 90.8934 93.0941 90.8471 90.9997 92.4151C88.9052 90.8471 86.428 90.8934 84.9553 91.3972C83.7244 91.8188 82.7589 92.1003 80.9453 92.0861C82.7421 95.5319 86.5705 97.9083 90.9997 97.9083C95.4288 97.9083 99.2572 95.5319 101.054 92.0861C99.2404 92.1003 98.275 91.8188 97.044 91.3972Z" fill="#D6C278"/>
<path d="M91.0011 4.81975C60.6885 4.81975 36.1129 27.4248 36.1129 55.3097C36.1129 79.2116 54.1719 99.2359 78.4234 104.467C59.1516 94.983 51.2937 73.2365 60.5865 55.0205C62.0885 62.2141 67.187 68.6237 74.8046 71.9499C64.869 50.5736 72.1848 25.4442 92.689 11.5468C88.6552 24.2515 94.8504 35.8767 108.139 44.6537C123.34 54.6915 123.982 75.1746 110.568 86.2471C115.897 85.1058 120.854 82.4068 124.557 78.2747C122.272 89.1017 114.892 98.8979 103.576 104.467C127.829 99.2359 145.887 79.2116 145.887 55.3097C145.887 27.4248 121.314 4.81975 91.0011 4.81975Z" fill="#D6C278"/>
<path d="M131.029 101.167H132.066V104.469H132.564V101.167H133.601V100.737H131.029V101.167ZM138.19 100.737C137.416 100.737 136.798 101.047 136.498 101.558C136.199 101.047 135.581 100.737 134.806 100.737H134.537V104.469H135.038V101.197H135.056C135.781 101.197 136.249 101.667 136.249 102.391V103.32H136.748V102.391C136.748 101.667 137.216 101.197 137.94 101.197H137.958V104.469H138.458V100.737H138.19Z" fill="#D6C278"/>
</svg>
